<?xml version="1.0" encoding="UTF-8"?>
<svg width="218px" height="114px" viewBox="0 0 218 114" version="1.1" xmlns="http://www.w3.org/2000/svg" xmlns:xlink="http://www.w3.org/1999/xlink">
    <!-- Generator: Sketch 61.1 (89650) - https://sketch.com -->
    <title>limabravo</title>
    <desc>Created with Sketch.</desc>
    <g id="Page-1" stroke="none" stroke-width="1" fill="none" fill-rule="evenodd">
        <g id="Group-4-Copy-5">
            <g id="Group-3" transform="translate(0.000000, 0.379747)" fill="#D1D1D1">
                <g id="Group-2">
                    <polygon id="Rectangle" points="-9.18856675e-14 0 151.772152 0 147.632911 27.654321 11.0379747 27.654321"></polygon>
                    <polygon id="Rectangle-Copy-3" points="16.556962 41.4814815 144.879523 41.4814815 140.734177 70.5185185 27.5949367 70.5185185"></polygon>
                    <polygon id="Rectangle-Copy-4" points="33.1139241 84.345679 137.011286 84.345679 130.636694 112 44.1518987 112"></polygon>
                </g>
                <path d="M164.764428,112 C171.673244,112 177.090385,111.606521 181.015849,110.819562 C184.941313,110.032603 188.631249,108.757729 192.085657,106.994941 C197.86394,103.973019 202.668708,100.10118 206.499961,95.3794266 C210.331214,90.6576728 212.843511,85.4322653 214.036852,79.703204 C215.481422,72.9038786 215.026068,67.3007307 212.67079,62.8937605 C210.315512,58.4867903 205.997501,55.0556492 199.716759,52.6003373 C204.427316,50.207982 208.242867,47.1545812 211.163412,43.4401349 C214.083957,39.7256886 216.078093,35.3816751 217.145819,30.4080944 C219.281271,20.5238898 217.412751,12.9848229 211.540256,7.79089376 C205.667762,2.59696459 196.073928,0 182.758755,0 L146.904693,0 C146.904693,0 122.797468,112 122.797468,112 L164.764428,112 Z M151.772152,48.3950617 L159.053569,13.8271605 L182.20474,13.8271605 C189.423923,13.8271605 194.651607,15.314457 197.887792,18.2890499 C201.123977,21.2636429 202.150844,25.5376633 200.968392,31.1111111 C199.723705,36.997674 196.674223,41.3499732 191.819945,44.1680086 C186.965667,46.986044 180.11989,48.3950617 171.282615,48.3950617 L151.772152,48.3950617 Z M140.734177,98.1728395 L149.031747,59.4567901 L170.907159,59.4567901 C182.536329,59.4567901 190.346731,60.9361839 194.338365,63.8949714 C198.33,66.8537589 199.571492,71.82704 198.062843,78.8148148 C196.617054,85.7396367 193.144018,90.6971796 187.643735,93.6874435 C182.143452,96.6777075 173.484435,98.1728395 161.666683,98.1728395 L140.734177,98.1728395 Z" id="LB" fill-rule="nonzero"></path>
            </g>
            <path d="M137.848482,112.379747 C137.848482,112.379747 144.89,79.1945617 144.89,79.1945617 C144.89,79.1945617 129.939911,79.1945617 129.939911,79.1945617 C129.939911,79.1945617 128.494364,85.8178415 125.603271,99.0644011 L75.7159075,99.0644011 C89.7155442,33.2746316 96.7153625,0.379746835 96.7153625,0.379746835 L82.2065249,0.379746835 C82.2065249,0.379746835 57.89,112.379747 57.89,112.379747 C111.195655,112.379747 137.848482,112.379747 137.848482,112.379747 Z" id="Path" fill="#0F1317" fill-rule="nonzero"></path>
        </g>
    </g>
</svg>