<?xml version="1.0" encoding="utf-8"?>
<!-- Generator: Adobe Illustrator 16.0.4, SVG Export Plug-In . SVG Version: 6.00 Build 0)  -->
<!DOCTYPE svg PUBLIC "-//W3C//DTD SVG 1.1//EN" "http://www.w3.org/Graphics/SVG/1.1/DTD/svg11.dtd">
<svg version="1.1" id="Layer_1" xmlns="http://www.w3.org/2000/svg" xmlns:xlink="http://www.w3.org/1999/xlink" x="0px" y="0px"
	 width="225.996px" height="92.002px" viewBox="0 0 225.996 92.002" enable-background="new 0 0 225.996 92.002"
	 xml:space="preserve">
<g>
	<g>
		<path stroke="#000000" stroke-miterlimit="10" d="M175.307,90.996h-33.996c-1.77,0-3.008-0.455-3.719-1.365
			c-0.707-0.912-0.861-2.277-0.455-4.098c0.404-2.021,1.24-3.404,2.506-4.137c1.264-0.732,3.994-1.1,8.195-1.1h2.502l14.57-68.37
			h-2.502c-3.898,0-6.312-0.392-7.248-1.176c-0.939-0.784-1.203-2.211-0.797-4.288c0.402-1.77,1.162-3.124,2.277-4.06
			C157.752,1.469,159.17,1,160.891,1h35.436c10.723,0,18.453,2.086,23.182,6.26c4.73,4.173,6.232,10.231,4.516,18.174
			c-0.861,3.996-2.467,7.487-4.82,10.471c-2.352,2.987-5.424,5.439-9.219,7.36c5.057,1.973,8.535,4.733,10.434,8.271
			c1.898,3.541,2.264,8.043,1.102,13.506c-0.963,4.605-2.986,8.803-6.07,12.598c-3.086,3.795-6.957,6.904-11.609,9.334
			c-2.783,1.416-5.756,2.441-8.918,3.072c-3.162,0.635-7.525,0.949-13.09,0.949H175.307z M162.254,80.297h16.848
			c9.51,0,16.477-1.201,20.904-3.605c4.428-2.402,7.221-6.385,8.387-11.949c1.213-5.617,0.211-9.613-2.998-11.99
			c-3.215-2.379-9.498-3.567-18.857-3.567h-17.605L162.254,80.297z M170.906,39.851h15.859c7.182,0,12.748-1.139,16.693-3.414
			c3.945-2.278,6.424-5.793,7.438-10.548c0.959-4.501,0.125-7.954-2.504-10.358c-2.633-2.401-6.881-3.604-12.75-3.604h-18.818
			L170.906,39.851z"/>
	</g>
	<polygon stroke="#000000" stroke-miterlimit="10" points="165.189,27.971 14.513,27.971 1,1.225 165.189,1.225 	"/>
	<polygon stroke="#000000" stroke-miterlimit="10" points="161.137,59.484 41.542,59.484 28.027,32.738 161.137,32.738 	"/>
	<polygon stroke="#000000" stroke-miterlimit="10" points="154.379,90.996 68.568,90.996 55.054,64.252 154.379,64.252 	"/>
	<g>
		<path fill="#FFFFFF" stroke="#000000" stroke-miterlimit="10" d="M155.123,60.416c0.807-3.795,1.707-6.248,2.693-7.361
			c0.988-1.111,2.543-1.67,4.666-1.67c1.824,0,3.098,0.471,3.83,1.404c0.736,0.936,0.875,2.391,0.422,4.363l-0.686,3.264
			l-5.311,24.965c-0.355,1.771-1.113,3.148-2.277,4.135c-1.164,0.988-2.605,1.48-4.326,1.48H86.828h-3.564
			c-1.822,0-3.101-0.455-3.833-1.365c-0.734-0.912-0.9-2.277-0.493-4.098c0.403-2.021,1.226-3.404,2.466-4.137
			c1.239-0.732,3.781-1.1,7.626-1.1h9.484l14.57-68.37H103.6c-3.747,0-6.098-0.392-7.058-1.176c-0.96-0.784-1.241-2.211-0.834-4.288
			c0.404-1.87,1.176-3.25,2.314-4.136C99.16,1.443,100.715,1,102.689,1h3.262h34.223h3.568c1.818,0,3.109,0.455,3.867,1.366
			c0.758,0.91,0.936,2.276,0.531,4.097c-0.406,2.076-1.264,3.504-2.58,4.288c-1.314,0.784-3.896,1.176-7.738,1.176h-12.749
			l-14.569,68.37h40.369L155.123,60.416z"/>
	</g>
</g>
</svg>
